<?xml version="1.0" standalone="no"?>
<!DOCTYPE svg PUBLIC "-//W3C//DTD SVG 20010904//EN"
 "http://www.w3.org/TR/2001/REC-SVG-20010904/DTD/svg10.dtd">
<svg version="1.0" xmlns="http://www.w3.org/2000/svg"
 width="1024.000000pt" height="1024.000000pt" viewBox="0 0 1024.000000 1024.000000"
 preserveAspectRatio="xMidYMid meet">

<g transform="translate(0.000000,1024.000000) scale(0.100000,-0.100000)"
fill="#000000" stroke="none">
<path d="M5039 9251 c-43 -43 -50 -80 -24 -131 47 -91 158 -77 201 25 12 30
12 40 0 68 -19 46 -61 77 -104 77 -27 0 -43 -9 -73 -39z"/>
<path d="M4860 8849 c-294 -25 -627 -107 -935 -231 -260 -105 -463 -218 -691
-384 -324 -236 -585 -514 -816 -864 -403 -614 -576 -1254 -554 -2060 3 -129 9
-260 12 -290 l6 -56 -78 -13 c-98 -16 -289 -78 -374 -121 -237 -119 -415 -290
-515 -495 -69 -142 -80 -193 -79 -385 2 -266 44 -382 196 -538 68 -70 165
-116 286 -138 l94 -16 -8 -37 c-20 -97 -19 -135 3 -181 12 -25 23 -51 23 -58
0 -26 40 -70 67 -75 16 -3 58 -12 95 -20 l67 -14 4 26 c2 14 5 -102 7 -259 5
-515 6 -495 -28 -595 -16 -50 -32 -103 -36 -118 -4 -15 -11 -25 -15 -22 -15 9
-17 -14 -10 -89 4 -39 17 -89 27 -111 11 -22 30 -63 42 -91 21 -49 50 -74 85
-74 7 0 34 -9 58 -19 25 -11 86 -27 136 -35 108 -19 122 -20 101 -5 -11 8 -6
9 23 7 35 -4 44 1 99 54 33 32 65 58 70 58 13 0 47 42 48 58 0 7 5 10 10 7 6
-3 10 3 10 14 0 10 3 26 6 34 3 10 -1 17 -13 20 -14 3 -10 7 17 19 19 9 42 15
52 13 24 -5 42 55 34 112 -3 24 -19 74 -35 111 -55 127 -57 151 -53 774 l2
406 38 13 c20 6 70 29 109 49 64 34 77 37 111 29 91 -20 108 -38 166 -184 32
-81 77 -139 164 -218 85 -75 148 -99 278 -105 115 -5 229 18 322 65 52 26 54
26 80 9 15 -9 104 -55 197 -101 308 -151 623 -239 1065 -299 345 -47 776 -9
1155 101 444 129 731 275 1113 566 217 166 550 530 625 683 17 36 31 47 120
90 56 27 115 61 133 76 l31 28 59 -21 c116 -40 230 -36 347 14 36 15 51 17 60
8 17 -17 36 -13 61 12 18 18 44 27 101 36 42 7 109 24 148 38 40 14 80 25 90
25 9 -1 15 2 13 6 -3 5 16 19 42 32 58 30 187 127 228 171 185 200 284 419
284 629 -1 113 -11 165 -51 245 -82 166 -228 284 -357 288 -20 1 -64 -2 -97
-6 l-60 -8 0 110 c0 132 -9 149 -105 199 l-65 34 -157 -5 c-87 -3 -158 -2
-158 1 -1 53 -37 307 -60 427 -82 418 -251 820 -504 1200 -316 474 -745 852
-1258 1107 -172 85 -205 99 -388 165 -401 143 -899 208 -1320 172z m645 -154
c851 -108 1656 -592 2148 -1292 107 -152 151 -226 233 -386 132 -259 206 -458
269 -722 47 -194 62 -297 71 -459 l7 -136 -40 0 -41 0 -7 93 c-29 396 -154
836 -339 1192 -276 530 -635 913 -1134 1210 -278 165 -528 267 -847 345 -442
108 -855 117 -1290 29 -271 -55 -432 -111 -769 -269 -234 -109 -601 -384 -802
-599 -71 -76 -263 -313 -308 -380 -284 -425 -453 -855 -515 -1316 -35 -258
-44 -535 -26 -794 8 -124 15 -228 15 -233 0 -13 -64 -9 -83 5 -14 10 -18 49
-29 264 -38 784 129 1442 516 2033 268 409 529 676 910 932 194 129 282 177
483 261 311 131 637 214 953 241 96 8 511 -4 625 -19z m49 -228 c43 -9 80 -18
83 -21 3 -3 -1 -16 -9 -28 -17 -26 -41 -169 -32 -193 4 -10 0 -15 -12 -16 -15
0 -16 -2 -4 -6 8 -4 20 -13 27 -22 10 -13 9 -19 -5 -30 -15 -12 -14 -12 8 -6
14 4 29 11 35 16 5 5 18 9 30 9 26 1 53 22 48 38 -7 18 27 15 51 -5 12 -10 10
-5 -5 10 -25 28 -59 29 -59 2 0 -8 -9 -10 -25 -7 -43 8 -31 41 40 107 36 33
65 66 65 73 0 48 368 -67 622 -194 115 -58 268 -152 268 -165 0 -6 4 -8 9 -5
5 4 22 -4 38 -17 15 -13 58 -43 96 -66 37 -24 67 -45 67 -47 0 -3 -3 -3 -7 -1
-5 2 -15 -4 -24 -14 -16 -16 -15 -17 15 -24 31 -7 31 -7 7 -16 -17 -7 -21 -13
-14 -20 7 -7 22 -3 49 12 36 21 38 21 18 2 -38 -38 -60 -44 -78 -24 -9 10 -13
21 -9 24 3 4 1 7 -5 7 -16 0 -9 -39 9 -51 8 -5 21 -6 29 -4 8 2 22 0 30 -5 12
-8 12 -10 -5 -10 -13 -1 -7 -6 18 -17 28 -11 37 -21 37 -39 0 -12 -7 -27 -16
-32 -14 -8 -13 -10 5 -15 12 -3 19 -1 15 4 -3 5 4 9 16 9 12 0 18 5 15 10 -4
6 6 10 22 10 l28 0 -25 -20 c-14 -11 -29 -20 -34 -20 -4 0 -1 -11 8 -24 10
-15 12 -27 6 -31 -16 -10 -11 -35 8 -36 16 -1 16 -2 -1 -6 -12 -3 -15 -11 -11
-29 4 -14 2 -24 -5 -24 -6 0 -11 11 -11 25 0 18 -4 23 -15 19 -8 -4 -15 -1
-15 6 0 7 -12 10 -32 8 -21 -2 -32 2 -35 12 -4 13 -3 13 7 0 9 -11 13 -12 17
-2 2 6 13 12 24 12 10 0 19 4 19 10 0 6 -16 8 -35 5 -29 -3 -35 -1 -33 12 2 9
-2 18 -9 20 -7 3 -9 -3 -6 -16 3 -12 1 -21 -6 -21 -6 0 -14 14 -18 30 -7 36
-18 30 -19 -8 0 -15 7 -32 15 -39 9 -6 13 -15 8 -19 -4 -4 -7 -2 -7 4 0 7 -9
12 -20 12 -11 0 -20 5 -20 10 0 6 4 10 9 10 22 0 4 35 -21 40 -22 4 -25 8 -18
20 7 11 12 12 18 4 5 -9 11 -8 20 2 11 12 8 14 -18 14 -17 0 -29 4 -26 9 3 4
-5 6 -18 4 -13 -3 -27 0 -30 6 -4 6 -4 11 1 11 10 0 11 50 1 51 -5 1 -12 3
-18 4 -5 1 -13 3 -17 4 -5 1 -1 6 7 12 13 9 13 10 0 6 -8 -2 -14 -14 -13 -26
3 -25 -22 -29 -35 -5 -5 9 -15 15 -22 12 -10 -3 -9 -8 4 -20 9 -9 16 -25 16
-35 0 -10 5 -25 10 -33 9 -13 13 -12 28 7 16 21 18 21 38 4 12 -10 23 -26 26
-37 2 -12 13 -20 31 -22 26 -3 40 -32 15 -32 -6 0 1 -13 17 -30 16 -16 39 -30
51 -30 12 0 24 -6 27 -14 9 -22 -55 -17 -71 5 -10 15 -16 16 -31 7 -14 -9 -24
-7 -44 8 -15 10 -24 25 -22 32 3 7 0 10 -5 7 -6 -4 -24 5 -40 19 l-30 25 31
-1 c16 -1 25 -4 19 -8 -8 -5 -1 -11 18 -18 17 -6 35 -6 43 -1 10 6 3 9 -21 9
-24 0 -31 3 -21 9 11 7 11 9 0 14 -11 4 -11 8 -2 14 19 14 -1 37 -22 26 -9 -5
-16 -14 -15 -19 1 -5 -4 -10 -12 -12 -9 -2 -8 0 2 7 16 11 13 12 -45 16 -13 0
-19 7 -17 18 2 9 -2 17 -8 17 -5 0 -10 -5 -10 -11 0 -5 -5 -7 -12 -3 -9 6 -9
9 0 12 24 8 11 19 -18 17 -16 -1 -30 1 -30 5 0 10 -182 125 -267 170 -35 18
-60 37 -56 43 3 5 2 7 -4 4 -5 -3 -49 10 -99 30 -355 141 -608 199 -929 210
-152 5 -256 -1 -415 -23 -43 -6 -295 -75 -405 -111 -162 -52 -463 -204 -615
-311 -82 -57 -206 -161 -288 -240 -43 -42 -68 -59 -80 -56 -14 5 -14 4 -2 -4
12 -9 12 -14 -4 -31 -10 -11 -23 -18 -28 -15 -4 3 -7 1 -6 -4 6 -18 -122 -172
-142 -172 -11 0 -20 4 -20 10 0 5 6 7 13 4 8 -3 20 3 28 13 12 16 12 17 -1 7
-9 -6 -26 -8 -40 -3 -24 7 -24 7 5 9 26 1 27 3 10 10 -11 5 -14 9 -7 9 6 1 12
6 12 11 0 6 -11 8 -25 4 -14 -3 -25 -2 -26 2 0 5 -2 19 -3 30 -3 23 -1 23 51
-4 17 -9 24 -8 33 3 10 12 9 15 -8 15 -15 0 -19 5 -15 20 4 15 9 18 18 10 7
-6 25 -8 39 -4 30 7 52 39 36 49 -6 4 -7 12 -4 18 4 7 4 9 -1 5 -4 -4 -16 -3
-26 3 -13 6 -19 6 -19 -1 0 -5 7 -10 16 -10 26 0 6 -17 -26 -22 -37 -5 -37 1
-5 36 31 33 32 56 4 56 -19 0 -20 -2 -8 -17 12 -15 12 -16 -3 -10 -26 9 -39
-14 -28 -53 6 -20 6 -39 0 -49 -10 -17 -10 -16 -14 37 -1 8 -10 20 -20 28 -18
13 -18 14 -2 14 10 0 14 4 10 12 -4 7 -3 8 4 4 6 -4 19 5 28 19 13 20 24 25
61 25 24 0 54 -5 65 -11 14 -8 23 -8 31 0 8 8 5 11 -11 11 -28 0 -75 21 -85
38 -7 11 -12 10 -28 -4 -18 -16 -19 -16 -19 5 0 17 5 22 23 20 27 -2 87 22 87
35 0 5 8 18 18 29 17 19 16 19 -24 13 -29 -5 -44 -3 -52 7 -9 11 -8 14 3 14 8
0 12 -4 9 -9 -3 -4 5 -8 17 -8 17 0 20 3 12 11 -6 6 -9 18 -6 27 4 10 2 13 -5
8 -7 -4 -12 -3 -12 3 0 6 12 8 30 5 20 -4 30 -2 30 5 0 7 -5 9 -12 5 -8 -5 -9
2 -5 23 6 29 5 30 -18 19 -13 -6 -21 -15 -18 -21 3 -5 0 -5 -7 2 -10 9 -10 15
3 27 9 9 22 16 29 17 7 0 4 4 -7 9 l-20 9 20 0 c15 1 17 3 7 10 -10 6 -9 10 7
14 21 5 30 27 10 27 -5 0 -7 -4 -4 -10 3 -5 -2 -10 -12 -10 -10 0 -30 -10 -45
-23 -21 -18 -24 -27 -16 -42 9 -19 8 -19 -5 -2 -13 15 -16 16 -27 2 -7 -9 -15
-13 -17 -11 -3 2 12 20 34 39 55 50 190 154 175 135 -10 -13 -10 -18 -1 -24 7
-4 15 -2 17 4 2 7 15 12 29 12 21 0 24 2 13 15 -15 18 -35 20 -24 3 4 -7 3 -8
-5 -4 -14 9 -7 22 21 37 18 9 20 9 15 -4 -3 -8 0 -18 8 -20 9 -4 12 2 10 18
-3 35 53 81 93 76 7 -1 16 8 22 21 5 13 9 17 9 11 1 -7 5 -13 11 -13 5 0 7 6
4 14 -4 10 2 12 20 9 17 -4 26 -1 26 7 0 7 -7 10 -15 6 -26 -9 -17 1 20 24 19
12 40 18 46 14 8 -4 9 -3 5 4 -9 15 311 170 447 216 11 3 42 9 70 12 29 3 75
12 104 20 28 8 63 14 77 14 14 0 25 5 23 11 -1 6 18 18 42 27 42 14 45 14 58
-4 12 -16 12 -19 -1 -22 -21 -4 -20 -9 4 -39 11 -15 27 -50 36 -80 12 -40 20
-53 35 -53 21 0 26 -16 7 -23 -7 -3 -3 -6 9 -6 28 -1 41 19 19 31 -9 5 -16 13
-16 18 0 15 38 12 43 -2 6 -19 18 -4 27 36 5 23 4 34 -2 30 -6 -4 -14 0 -19 7
-7 11 -9 10 -9 -3 0 -24 -16 -23 -23 2 -3 11 -2 18 3 15 9 -6 24 24 21 43 -2
15 4 15 30 1 14 -7 18 -16 14 -32 -5 -17 -2 -15 14 8 l21 30 -32 5 c-21 3 -34
12 -36 23 -2 9 1 17 7 17 6 0 11 4 11 9 0 6 -10 8 -22 6 -16 -4 -19 -2 -10 7
12 12 18 14 97 27 86 15 688 5 779 -12z m-194 -463 c262 -31 490 -97 715 -208
206 -102 370 -213 543 -371 238 -215 348 -361 509 -676 116 -227 195 -506 210
-749 5 -91 -12 -456 -24 -486 -3 -8 -12 -14 -20 -14 -12 0 -14 7 -9 33 4 17 9
119 13 225 4 163 3 205 -12 265 -9 40 -23 83 -30 96 -11 21 -13 15 -18 -55
-16 -193 -27 -310 -33 -326 -7 -25 -65 -24 -88 1 -9 10 -16 31 -15 47 2 36
-27 308 -47 434 -22 139 -59 271 -104 372 -22 48 -40 90 -40 93 0 12 -118 208
-181 301 -65 96 -175 214 -198 214 -7 0 -9 10 -7 23 10 42 -264 242 -490 357
-328 167 -589 227 -943 217 -227 -6 -388 -33 -591 -98 -175 -57 -283 -105
-408 -181 -185 -112 -372 -266 -372 -307 0 -12 -8 -25 -18 -29 -28 -11 -71
-50 -133 -122 -128 -148 -257 -381 -324 -584 -56 -169 -85 -365 -85 -579 1
-224 10 -326 46 -490 19 -92 24 -131 16 -139 -16 -16 -124 -16 -129 0 -3 7 11
27 31 46 20 18 36 35 36 38 0 3 -15 9 -34 12 -21 4 -41 17 -51 33 -27 41 -54
252 -82 653 l-6 75 -23 -115 c-31 -152 -32 -338 -3 -528 18 -121 81 -338 155
-537 6 -17 3 -16 -17 5 -13 14 -21 28 -16 31 5 3 0 8 -10 11 -35 9 -134 304
-168 502 -21 125 -30 438 -16 554 39 314 188 707 379 1002 127 195 363 433
557 561 258 171 405 241 658 315 141 41 405 90 527 97 77 5 203 -2 350 -19z
m1635 -204 c4 -6 -7 -10 -27 -9 -31 1 -32 1 -8 9 14 4 26 8 27 9 1 1 5 -3 8
-9z m-3725 -30 c0 -5 -5 -10 -11 -10 -5 0 -7 5 -4 10 3 6 8 10 11 10 2 0 4 -4
4 -10z m3774 -25 c-4 -8 -1 -15 5 -15 6 0 11 5 11 11 0 5 5 7 10 4 14 -9 -17
-38 -34 -32 -7 3 -16 15 -19 26 -4 16 0 21 14 21 12 0 16 -5 13 -15z m-334 -5
c0 -5 -4 -10 -10 -10 -5 0 -10 5 -10 10 0 6 5 10 10 10 6 0 10 -4 10 -10z
m-3474 -69 c-9 -10 -13 -21 -9 -26 5 -4 2 -5 -5 -1 -7 4 -10 11 -7 16 3 5 -3
11 -12 13 -11 3 -8 5 10 6 21 1 27 6 28 24 1 18 2 18 6 4 3 -10 -2 -26 -11
-36z m2119 34 c142 -21 219 -40 369 -89 154 -51 234 -90 411 -199 132 -81 199
-131 292 -217 28 -26 55 -49 60 -51 12 -6 132 -154 185 -229 195 -279 276
-503 314 -872 15 -146 15 -170 0 -315 -16 -166 -37 -262 -62 -302 -29 -44 -35
-8 -14 90 41 198 51 446 25 622 -21 141 -68 314 -110 407 -19 42 -35 80 -35
83 0 3 -28 54 -62 114 -106 185 -255 371 -381 473 -95 77 -251 179 -368 241
-134 72 -401 158 -589 191 -101 17 -462 17 -560 0 -352 -63 -628 -186 -883
-392 -54 -44 -82 -62 -72 -46 16 25 16 26 -1 26 -26 0 22 42 139 124 154 107
360 213 507 260 104 34 275 75 353 85 107 14 375 12 482 -4z m-2195 -10 c0 -8
-2 -15 -4 -15 -2 0 -6 7 -10 15 -3 8 -1 15 4 15 6 0 10 -7 10 -15z m5 -41 c16
-4 22 -11 18 -21 -5 -12 -1 -14 15 -8 14 4 22 2 22 -5 0 -6 5 -8 10 -5 6 3 10
1 10 -4 0 -14 -17 -14 -26 0 -4 8 -8 8 -13 1 -4 -7 -20 1 -41 21 -23 22 -35
27 -38 18 -4 -11 -6 -11 -12 0 -5 8 -2 18 8 25 14 10 18 10 20 -2 2 -8 14 -17
27 -20z m3889 1 c3 -8 12 -15 21 -15 8 0 15 -9 15 -20 0 -11 -4 -20 -10 -20
-5 0 -10 6 -10 14 0 10 -13 16 -37 18 -35 3 -36 4 -19 21 21 21 32 22 40 2z
m36 5 c0 -5 -2 -10 -4 -10 -3 0 -8 5 -11 10 -3 6 -1 10 4 10 6 0 11 -4 11 -10z
m-450 -10 c0 -5 -5 -10 -11 -10 -5 0 -7 5 -4 10 3 6 8 10 11 10 2 0 4 -4 4
-10z m-3504 -50 c23 0 24 -2 10 -15 -8 -8 -17 -15 -21 -15 -3 0 -17 -12 -31
-27 -14 -17 -22 -21 -18 -10 3 9 1 17 -5 17 -6 0 -11 -4 -11 -10 0 -5 -7 -7
-15 -4 -8 4 -16 1 -16 -5 -1 -6 -2 -17 -3 -23 0 -7 -7 -13 -13 -12 -7 1 -20 2
-29 3 -23 2 -14 22 40 83 47 55 49 55 67 37 11 -11 31 -19 45 -19z m9 20 c3
-6 -1 -7 -9 -4 -18 7 -21 14 -7 14 6 0 13 -4 16 -10z m3995 1 c0 -5 -7 -11
-15 -15 -15 -5 -20 5 -8 17 9 10 23 9 23 -2z m-3840 -15 c0 -11 -19 -15 -25
-6 -3 5 1 10 9 10 9 0 16 -2 16 -4z m3750 -31 c-11 -14 -14 -13 -26 2 -10 15
-10 19 4 24 24 9 38 -7 22 -26z m-3800 6 c0 -5 -11 -8 -25 -7 -33 1 -33 16 0
16 14 0 25 -4 25 -9z m-103 -36 c8 -9 12 -19 9 -23 -4 -3 -11 0 -16 8 -7 12
-11 12 -26 -1 -16 -13 -16 -12 -5 9 14 26 18 27 38 7z m3777 0 c-7 -16 -24
-21 -24 -6 0 8 7 13 27 20 1 1 0 -6 -3 -14z m-1550 -21 c50 -8 115 -24 145
-34 31 -10 97 -31 146 -45 193 -58 546 -267 690 -410 93 -92 198 -252 290
-441 120 -244 152 -368 162 -619 8 -211 -37 -475 -81 -467 -9 2 -16 -4 -16
-13 0 -8 -6 -15 -14 -15 -16 0 -26 -21 -26 -57 0 -21 2 -23 15 -13 8 7 12 16
9 21 -3 5 0 9 5 9 15 0 14 -6 -5 -35 -8 -13 -21 -22 -28 -19 -8 3 -16 -2 -19
-10 -4 -11 -1 -13 11 -9 13 5 14 3 5 -7 -6 -7 -74 -25 -150 -40 -76 -15 -182
-44 -237 -63 -112 -41 -105 -42 -219 35 -78 52 -100 60 -123 43 -38 -29 -80
-13 -180 66 -33 26 -97 72 -142 102 -65 42 -118 92 -247 233 -90 98 -164 181
-165 184 0 3 75 14 168 23 92 9 266 28 387 41 121 14 220 24 221 23 2 -1 -4
-27 -12 -57 -22 -82 -15 -212 14 -272 35 -71 107 -145 176 -181 54 -28 70 -32
141 -31 187 0 321 116 356 308 28 155 -52 318 -196 394 -45 24 -60 27 -155 27
l-105 0 -90 -48 -90 -49 -225 -3 c-193 -2 -236 -6 -300 -24 -41 -12 -115 -24
-165 -27 l-90 -6 46 48 c41 44 141 158 267 306 24 29 42 60 42 74 0 24 -1 24
-29 9 -47 -24 -145 -108 -296 -255 -158 -153 -192 -180 -229 -180 -29 0 -94
30 -141 65 -52 39 -248 117 -378 151 -33 8 -91 31 -128 50 -38 19 -73 34 -79
34 -20 0 -110 42 -110 51 0 5 24 9 53 9 69 0 150 23 196 55 47 32 105 128 133
219 23 76 21 166 -6 230 -23 54 -104 135 -171 169 -82 42 -198 50 -270 18
-110 -49 -196 -140 -221 -234 -27 -103 -8 -237 47 -327 l21 -34 -21 -17 c-12
-10 -21 -20 -21 -23 0 -16 127 -96 215 -134 156 -68 226 -103 231 -116 3 -7
-9 -38 -26 -70 -52 -99 -39 -178 42 -252 73 -67 147 -70 236 -10 26 18 61 37
77 43 40 13 48 53 11 53 -25 0 -26 2 -26 65 0 37 4 65 10 65 19 0 150 -93 150
-106 0 -19 49 -54 76 -54 38 0 36 -15 -9 -48 -92 -68 -203 -170 -236 -216 -34
-48 -36 -53 -34 -130 3 -93 -8 -129 -44 -145 -58 -27 -88 24 -73 126 9 69 1
90 -43 101 -45 12 -64 5 -98 -38 -18 -22 -45 -42 -67 -48 -73 -23 -123 -33
-131 -27 -5 3 -11 2 -13 -3 -1 -4 -27 -18 -56 -30 -46 -20 -57 -21 -87 -11
-27 10 -52 9 -135 -5 -172 -28 -185 -41 -208 -202 l-17 -119 -36 -19 c-44 -24
-83 -16 -103 22 -14 28 -4 53 19 45 6 -2 8 20 6 54 -4 53 -5 55 -11 23 l-6
-35 -8 50 c-4 28 -9 57 -12 65 -2 8 0 21 4 28 15 23 -15 167 -47 231 -17 33
-33 61 -35 61 -3 0 4 -26 15 -57 14 -44 17 -69 11 -103 l-8 -45 -17 42 c-58
144 -81 363 -58 547 48 375 239 752 514 1013 173 164 455 326 696 399 264 80
529 100 765 58z m1423 -10 c-3 -3 -12 -4 -19 -1 -8 3 -5 6 6 6 11 1 17 -2 13
-5z m-3840 -36 c0 -13 -1 -17 -4 -10 -3 6 -10 9 -16 5 -7 -4 -6 1 2 10 17 21
17 21 18 -5z m166 15 c-7 -2 -21 -2 -30 0 -10 3 -4 5 12 5 17 0 24 -2 18 -5z
m3838 -16 c-10 -9 -11 -8 -5 6 3 10 9 15 12 12 3 -3 0 -11 -7 -18z m-3846 -7
c8 -13 -5 -13 -25 0 -13 8 -13 10 2 10 9 0 20 -4 23 -10z m4015 -42 c0 -8 3
-9 8 -3 4 6 16 11 27 13 17 2 16 0 -5 -12 -32 -19 -37 -19 -44 -1 -3 8 -1 15
4 15 6 0 10 -6 10 -12z m-4020 -18 c-19 -12 -30 -12 -30 -1 0 10 31 20 40 14
2 -2 -2 -8 -10 -13z m3795 11 c3 -5 2 -12 -3 -15 -5 -3 -9 1 -9 9 0 17 3 19
12 6z m-3631 -36 c-4 -8 -12 -15 -20 -15 -20 0 -17 18 4 23 9 3 18 5 19 6 1 0
0 -6 -3 -14z m3826 -16 c0 -3 -9 -14 -19 -26 -19 -20 -19 -20 15 -36 19 -9 34
-12 34 -7 0 6 -7 10 -15 10 -18 0 -20 27 -2 44 13 14 38 10 49 -8 5 -8 17 -7
40 2 21 8 34 9 36 2 2 -5 8 -10 13 -10 4 0 6 7 3 15 -6 15 7 21 19 8 12 -11
-24 -42 -41 -36 -9 4 -13 2 -9 -4 5 -9 -150 -133 -165 -133 -5 0 -108 135
-108 141 0 2 11 5 25 5 14 1 25 -2 25 -7 0 -5 -5 -9 -11 -9 -5 0 -8 -4 -4 -9
6 -11 53 30 47 42 -2 4 9 7 25 5 25 -3 28 0 25 22 -2 19 0 22 8 10 5 -8 10
-18 10 -21z m150 27 c0 -3 -4 -8 -10 -11 -5 -3 -10 -1 -10 4 0 6 5 11 10 11 6
0 10 -2 10 -4z m-4205 -16 c-3 -5 -11 -10 -16 -10 -6 0 -7 5 -4 10 3 6 11 10
16 10 6 0 7 -4 4 -10z m78 -7 c-7 -19 -22 -33 -36 -33 -4 0 0 11 9 25 19 29
37 34 27 8z m-58 -13 c-3 -5 -12 -10 -18 -10 -7 0 -6 4 3 10 19 12 23 12 15 0z
m3935 6 c0 -3 -4 -8 -10 -11 -5 -3 -10 -1 -10 4 0 6 5 11 10 11 6 0 10 -2 10
-4z m-3965 -28 c19 -13 35 -26 35 -31 0 -4 -18 5 -40 19 -38 25 -47 34 -35 34
3 0 21 -10 40 -22z m797 -156 c-9 -2 -28 -14 -41 -25 l-24 -22 12 22 c17 33
53 56 63 40 5 -7 1 -13 -10 -15z m-2 -16 c0 -2 -8 -10 -17 -17 -16 -13 -17
-12 -4 4 13 16 21 21 21 13z m-100 -50 c-7 -14 -10 -31 -7 -39 3 -9 -1 -18
-10 -21 -9 -4 -13 -9 -10 -12 3 -3 -4 -16 -15 -29 -11 -13 -60 -81 -110 -151
-49 -71 -95 -129 -101 -129 -7 0 -11 -8 -9 -18 2 -10 -3 -16 -10 -15 -8 2 -12
-5 -11 -16 1 -11 -15 -58 -34 -105 -53 -128 -119 -356 -134 -462 -20 -150 -15
-420 11 -574 22 -128 89 -356 137 -465 35 -79 105 -199 190 -322 40 -58 73
-109 73 -112 0 -3 -8 -6 -18 -6 -22 0 -47 27 -91 97 -18 28 -39 57 -47 64 -48
39 -169 281 -215 428 -58 188 -94 482 -86 695 13 306 64 521 177 747 54 106
183 303 237 359 19 19 46 54 60 77 29 44 46 50 23 9z m3500 4 c0 -5 -5 -10
-11 -10 -5 0 -7 5 -4 10 3 6 8 10 11 10 2 0 4 -4 4 -10z m-2873 -148 c48 -25
67 -46 92 -102 22 -48 28 -110 11 -110 -5 0 -10 6 -10 14 0 8 -6 16 -14 19 -8
3 -31 31 -51 61 -46 70 -51 73 -51 31 0 -41 -36 -85 -70 -85 -29 0 -80 43 -88
75 -4 14 -10 25 -15 25 -4 0 -26 -22 -48 -48 -24 -28 -49 -48 -61 -48 -19 0
-19 2 -6 45 37 123 190 184 311 123z m2898 -71 c-6 -5 -30 23 -46 54 -5 11 4
5 20 -14 17 -19 28 -37 26 -40z m235 -70 c-41 -6 -43 -7 -20 -15 23 -9 22 -9
-14 -13 -29 -3 -36 -7 -25 -14 10 -6 2 -9 -27 -9 -23 0 -54 -3 -70 -6 -24 -5
-32 -1 -46 24 -10 17 -18 32 -18 34 0 1 60 4 133 5 74 0 112 -2 87 -6z m-4590
-158 c0 -5 -28 -7 -62 -5 -113 5 -125 9 -30 10 50 1 92 -1 92 -5z m4477 -30
c26 -15 67 -17 59 -4 -3 4 13 5 36 1 23 -5 48 -6 55 -3 8 3 13 -2 13 -15 0
-20 -17 -24 -110 -22 -61 1 -68 3 -79 27 -13 27 -15 54 -3 38 4 -5 17 -16 29
-22z m273 -33 c-8 -5 -33 -10 -55 -10 -29 0 -36 3 -25 10 8 5 33 10 55 10 29
0 36 -3 25 -10z m-196 -111 c-9 -10 -13 -22 -10 -28 4 -5 -2 -15 -13 -21 -18
-9 -21 -7 -27 17 -3 16 -7 33 -9 40 -3 8 10 12 36 11 38 0 39 -1 23 -19z m47
-149 c18 6 88 10 154 9 96 -1 113 -3 86 -11 -26 -7 -31 -12 -20 -19 11 -6 8
-9 -10 -9 -28 0 -18 -15 14 -23 11 -3 -12 -5 -51 -6 -39 0 -98 -4 -130 -7 -67
-7 -88 4 -98 50 -6 25 -5 28 7 18 9 -8 24 -9 48 -2z m-4786 -150 c25 -6 20 -8
-27 -9 -32 0 -58 -5 -58 -10 0 -13 -83 -26 -87 -14 -2 5 -18 8 -36 6 -29 -2
-30 -2 -7 6 20 7 13 9 -35 10 -43 1 -56 4 -45 11 17 11 251 11 295 0z m5190 0
c16 -6 9 -9 -32 -15 -29 -4 -50 -11 -47 -16 3 -5 -4 -9 -16 -9 -12 0 -28 -7
-36 -15 -12 -12 -44 -15 -155 -15 -132 0 -139 1 -140 20 -1 11 -2 26 -3 33 -1
9 31 14 114 18 183 8 293 8 315 -1z m-5335 -50 c38 -2 41 -3 20 -10 -41 -13
-107 -11 -113 3 -3 9 4 12 22 11 14 -1 46 -2 71 -4z m2005 -35 c36 -35 35
-105 -1 -134 -38 -30 -87 -28 -113 5 -36 46 -24 125 22 144 38 15 67 11 92
-15z m1823 -54 c62 -32 128 -119 120 -158 -2 -11 -22 1 -68 43 l-65 58 -6 -37
c-10 -62 -60 -104 -103 -87 -56 21 -86 86 -54 118 9 9 9 12 -1 12 -7 0 -43
-29 -80 -65 -72 -71 -87 -69 -57 9 45 117 195 168 314 107z m-3720 -39 c2 -7
15 -12 28 -12 18 0 24 -5 24 -23 l0 -23 -235 -3 -235 -2 0 35 c0 19 5 36 10
38 6 2 99 3 207 2 141 0 198 -4 201 -12z m4962 -12 c77 -1 123 -5 139 -14 l25
-14 -30 -6 c-16 -3 -76 -5 -134 -4 -58 1 -113 -2 -122 -6 -15 -7 -18 -3 -18
30 0 30 3 35 12 26 8 -8 51 -12 128 -12z m-106 -172 c6 -4 20 -8 31 -8 17 0
17 2 5 10 -11 7 3 10 48 10 34 0 62 4 62 9 0 12 191 22 210 11 10 -7 -2 -10
-40 -11 -30 -1 -44 -4 -30 -6 l25 -5 -30 -14 -30 -14 28 4 c15 2 30 -1 33 -5
3 -5 -71 -9 -165 -9 -108 0 -172 4 -176 11 -4 5 -3 22 1 37 6 23 8 24 12 7 2
-11 9 -23 16 -27z m-2304 -124 c74 -86 163 -198 198 -249 46 -69 71 -96 94
-104 21 -8 35 -8 43 -1 7 6 21 7 31 3 28 -10 84 -54 95 -74 14 -27 -8 -67 -43
-74 -21 -5 -34 -18 -49 -50 -22 -47 -54 -65 -114 -65 -29 0 -33 4 -44 43 -26
88 -106 190 -178 229 -148 79 -285 58 -418 -64 -93 -85 -134 -226 -101 -348 8
-30 13 -57 10 -59 -2 -2 -36 -10 -76 -17 -40 -7 -80 -15 -89 -19 -13 -5 -18 6
-28 57 -18 89 -73 189 -128 232 -100 78 -250 106 -355 66 -76 -28 -159 -104
-195 -178 -26 -53 -28 -65 -28 -184 0 -71 -4 -128 -9 -128 -5 0 -2 -7 5 -17
13 -15 12 -15 -7 -5 -32 17 -99 96 -161 191 -59 88 -59 101 -2 101 42 0 92 40
122 100 26 49 28 62 23 123 -6 81 -20 72 169 111 117 25 377 93 415 110 12 5
18 -6 28 -46 12 -54 47 -113 72 -125 8 -3 42 -10 75 -13 l60 -7 -55 -2 c-53
-3 -54 -3 -20 -12 37 -8 104 4 115 21 3 6 2 10 -3 10 -5 0 6 17 26 37 51 54
64 93 61 182 -2 55 1 83 12 97 26 38 288 284 301 284 7 0 74 -70 148 -156z
m2409 0 c3 -4 -22 -4 -56 -1 -67 7 -71 4 -64 -50 1 -7 -3 -13 -9 -13 -11 0
-14 62 -4 73 9 8 124 0 133 -9z m1084 -326 c-2 -156 -8 -407 -14 -560 -5 -152
-7 -289 -4 -305 4 -15 8 -37 10 -49 3 -11 16 -26 31 -32 39 -18 91 0 154 54
101 86 167 210 177 336 l6 68 -37 15 c-20 9 -58 18 -84 22 -89 11 -132 56
-132 139 0 76 50 142 128 170 72 26 130 13 200 -43 56 -46 90 -115 104 -213
14 -100 4 -153 -55 -292 -58 -139 -147 -253 -265 -340 -117 -86 -126 -91 -210
-122 -98 -35 -157 -35 -208 2 -53 39 -63 53 -74 103 l-9 44 3 -41 c4 -44 -20
-112 -52 -147 -34 -38 -114 -70 -187 -75 -62 -4 -78 -1 -121 21 -101 51 -173
166 -194 310 -7 46 -11 145 -9 227 6 216 26 248 199 315 36 13 80 28 98 31
l32 7 -1 -49 c0 -64 -22 -165 -34 -164 -6 0 -9 15 -8 33 l2 32 -9 -30 c-33
-105 -13 -359 36 -456 31 -62 66 -99 93 -99 25 0 79 62 107 125 20 46 23 70
28 305 6 210 4 265 -8 310 -14 52 -14 57 6 99 25 51 37 209 19 254 -9 22 -17
27 -45 27 -44 0 -85 -34 -132 -111 -20 -32 -39 -59 -42 -59 -2 0 -2 14 2 30 9
49 -12 34 -45 -32 -17 -35 -39 -71 -48 -82 -17 -20 -161 -89 -169 -82 -2 3 1
40 7 83 40 267 295 468 504 397 33 -11 51 -13 60 -6 19 16 180 112 187 112 3
0 5 -127 3 -282z m-6125 165 c-21 -2 -57 -2 -80 0 -24 2 -7 4 37 4 44 0 63 -2
43 -4z m69 1 c-3 -3 -12 -4 -19 -1 -8 3 -5 6 6 6 11 1 17 -2 13 -5z m5230 -76
c-5 -52 -56 -188 -122 -323 -18 -38 -52 -113 -76 -164 -23 -52 -55 -118 -72
-145 -79 -133 -343 -668 -364 -738 -5 -16 2 -18 54 -18 112 0 232 43 314 112
58 50 124 173 143 267 9 45 15 56 31 56 15 0 21 -9 27 -40 9 -55 8 -238 -2
-305 -19 -120 -17 -116 -79 -142 -112 -49 -389 -127 -666 -188 -44 -10 -92
-21 -107 -25 l-28 -7 0 63 c0 80 18 157 76 329 65 193 145 374 312 702 80 158
143 290 140 293 -10 11 -182 -36 -232 -63 -66 -36 -111 -91 -158 -192 -58
-127 -62 -135 -81 -138 -15 -3 -17 10 -16 140 1 151 10 303 20 312 7 7 190 43
399 80 172 30 335 87 418 146 31 22 61 40 66 40 5 0 6 -24 3 -52z m-3868 -22
c-9 -8 -211 -47 -217 -42 -10 10 2 15 83 29 78 15 142 21 134 13z m1134 -171
c66 -27 139 -106 136 -147 0 -10 -2 -10 -6 0 -2 6 -10 12 -18 12 -7 0 -19 7
-26 16 -21 26 -112 74 -139 73 -20 0 -18 -2 14 -14 36 -13 55 -29 56 -47 0 -4
-17 -25 -38 -48 -44 -45 -75 -51 -115 -20 -49 39 -41 97 18 121 16 6 17 8 3 8
-18 1 -144 -81 -167 -108 -12 -14 -13 -12 -6 14 15 66 64 119 130 143 44 15
117 14 158 -3z m-1906 -67 c6 -7 13 -30 17 -50 8 -45 -9 -58 -82 -58 -43 0
-50 3 -61 26 -14 32 -10 39 47 69 54 28 66 30 79 13z m2686 -203 c5 -93 6
-406 3 -695 -2 -289 -2 -537 1 -552 5 -27 8 -28 63 -28 65 0 70 -5 70 -71 0
-36 -3 -40 -50 -64 -60 -30 -158 -55 -222 -55 -63 0 -100 32 -129 110 -23 64
-39 70 -39 15 0 -19 -5 -37 -11 -40 -6 -4 -8 -14 -5 -22 8 -20 -101 -125 -158
-152 -53 -26 -127 -27 -181 -2 -52 23 -136 115 -171 187 -20 42 -33 96 -52
222 -24 165 -24 168 -8 297 18 144 85 423 116 484 25 50 128 179 177 221 20
18 61 44 91 57 46 22 64 24 135 21 45 -3 89 -8 97 -12 14 -5 15 3 12 62 -8
131 58 193 198 189 l55 -2 8 -170z m757 139 c58 -13 74 -22 106 -56 47 -53 71
-107 85 -198 22 -147 -4 -215 -152 -384 -135 -155 -283 -272 -380 -300 -14 -4
-15 -13 -7 -68 22 -160 50 -215 123 -243 40 -16 53 -16 101 -6 103 23 207 133
254 270 32 92 59 143 73 138 18 -6 19 -148 1 -252 -18 -107 -44 -157 -116
-217 -118 -99 -224 -145 -354 -155 -73 -5 -86 -3 -142 22 -116 52 -193 161
-227 320 -21 97 -24 388 -5 510 24 158 99 351 172 442 62 79 173 151 271 178
69 18 114 18 197 -1z m-2419 -45 c66 -22 131 -89 128 -131 0 -10 -2 -10 -6 0
-2 6 -11 12 -19 12 -8 0 -32 11 -52 25 -41 28 -57 32 -49 11 6 -15 -26 -74
-51 -93 -41 -33 -122 4 -122 56 0 14 7 36 15 47 14 21 14 21 -18 10 -60 -22
-98 -47 -118 -79 -18 -27 -20 -28 -13 -7 11 39 40 93 61 112 49 45 167 62 244
37z m-984 -66 c16 -21 41 -58 55 -83 29 -51 78 -188 78 -218 0 -11 7 -22 15
-26 18 -7 20 -32 3 -39 -10 -4 -10 -7 -1 -14 16 -11 35 -63 24 -63 -15 0 -75
75 -146 180 -67 101 -87 139 -67 126 18 -11 14 16 -6 39 -10 11 -27 25 -37 31
-32 18 -30 44 7 75 18 15 36 28 40 29 3 0 19 -17 35 -37z m-19 -385 c37 -69
48 -98 38 -98 -8 0 -26 15 -39 33 -27 34 -80 137 -73 137 3 0 -1 19 -9 43
l-15 42 23 -29 c12 -17 46 -74 75 -128z m-963 112 c302 -76 473 -285 492 -600
12 -208 -33 -359 -154 -510 -120 -151 -239 -243 -442 -345 l-79 -40 -4 -553
c-4 -521 -3 -556 14 -605 32 -87 28 -110 -20 -142 -44 -29 -109 -50 -208 -66
-74 -12 -164 -5 -164 12 0 5 15 26 34 46 55 63 57 86 59 662 1 286 0 521 -3
521 -3 0 -21 -5 -40 -10 -54 -17 -153 -13 -194 6 -20 10 -36 21 -36 25 0 15
45 40 97 55 29 8 78 21 108 30 l56 16 -1 86 c-1 48 1 305 4 572 l5 485 30 21
c28 20 232 104 252 104 4 0 8 -24 6 -52 -1 -29 1 -190 5 -358 4 -168 4 -396 0
-508 -4 -112 -3 -202 2 -202 15 0 102 68 143 113 60 65 113 153 145 241 49
135 72 369 48 497 -24 130 -133 285 -238 336 -55 27 -63 28 -202 28 -172 0
-262 -20 -405 -89 -262 -127 -427 -319 -456 -530 -21 -160 18 -270 124 -347
47 -34 108 -39 163 -13 46 22 64 50 64 99 0 38 -3 42 -34 53 -19 7 -51 24 -73
38 l-38 26 25 -27 c21 -23 22 -26 5 -17 -58 30 -76 90 -46 157 23 52 63 75
131 75 83 0 149 -53 198 -158 19 -43 25 -71 25 -140 2 -119 -21 -166 -112
-233 -125 -92 -226 -102 -356 -36 -91 46 -140 95 -181 181 -114 242 -82 488
95 723 75 99 169 179 294 251 145 82 272 118 517 146 79 9 267 -4 345 -24z
m2801 18 c18 -29 -96 -53 -136 -28 -21 13 -9 20 47 30 70 11 81 11 89 -2z
m3054 -74 c0 -25 -4 -43 -8 -40 -5 3 -8 15 -6 28 1 13 3 31 3 41 2 38 11 14
11 -29z m-3387 -98 c89 -87 86 -74 92 -351 2 -104 9 -208 15 -230 23 -82 29
-134 30 -285 2 -253 15 -296 98 -335 70 -33 54 -46 -98 -82 -74 -18 -200 -48
-280 -68 -161 -38 -249 -55 -293 -55 l-29 0 8 248 c7 245 -9 796 -26 912 -7
47 -5 58 11 76 10 11 19 24 19 30 0 5 -6 2 -13 -7 -7 -8 -27 -24 -45 -35 -61
-35 -155 -178 -168 -254 -4 -25 -8 -103 -9 -175 -1 -71 -6 -272 -10 -446 l-8
-315 43 -41 c23 -23 39 -46 36 -51 -3 -6 -25 -13 -49 -17 -23 -4 -110 -24
-193 -46 -155 -40 -189 -45 -198 -30 -3 4 11 41 32 82 l37 74 3 565 c3 561 3
566 -18 592 -11 15 -36 33 -55 39 -63 23 -54 63 18 74 85 14 214 48 271 71 32
13 62 22 66 19 7 -5 5 -70 -5 -147 -3 -21 -1 -38 3 -38 5 0 36 39 69 88 71
101 111 141 171 172 49 26 136 30 195 10 33 -10 45 -10 75 3 103 43 116 40
205 -47z m-1298 -240 c60 -28 109 -81 144 -156 20 -44 26 -75 29 -152 4 -87 2
-102 -21 -152 -35 -75 -213 -259 -322 -331 -61 -40 -175 -103 -202 -110 -1 -1
7 -46 18 -100 33 -163 63 -212 137 -222 72 -10 132 19 207 99 62 66 101 132
153 261 14 33 38 35 45 5 8 -29 -9 -233 -21 -274 -36 -117 -177 -249 -308
-289 -240 -73 -417 29 -495 285 -26 85 -30 203 -16 465 12 221 39 320 122 451
49 77 77 106 154 162 85 61 146 81 246 82 63 0 91 -5 130 -24z m-1821 -82 c3
-9 6 -31 6 -50 0 -42 -20 -45 -73 -9 -44 31 -46 40 -9 59 36 20 68 20 76 0z
m5635 -758 c18 -22 7 -38 -131 -172 -162 -158 -305 -264 -538 -397 -148 -84
-400 -198 -515 -232 -49 -15 -131 -40 -181 -55 -230 -73 -565 -116 -834 -107
-303 9 -672 78 -930 172 -58 22 -60 25 -13 20 37 -3 40 -2 37 21 -1 13 2 24 6
24 12 0 220 -46 315 -69 98 -24 279 -48 483 -63 365 -28 844 51 1199 196 277
113 401 178 598 314 148 102 427 331 448 368 9 16 34 7 56 -20z m-5769 -516
c19 -11 29 -19 23 -20 -7 0 -27 9 -45 20 -42 25 -24 25 22 0z"/>
<path d="M5004 8435 c2 -13 8 -31 15 -38 6 -8 7 -18 3 -22 -4 -5 -1 -5 6 -1
17 10 15 -12 -3 -30 -8 -9 -14 -25 -14 -37 1 -20 2 -20 6 -3 3 11 16 28 29 39
27 21 31 37 10 37 -8 0 -20 16 -26 35 -14 42 -29 54 -26 20z"/>
<path d="M5467 8433 c-9 -2 -15 -8 -12 -13 3 -5 1 -20 -5 -34 -8 -22 -7 -26 8
-26 13 0 14 -2 3 -9 -10 -7 -11 -13 -2 -30 15 -27 23 -27 19 2 -2 16 2 21 14
19 9 -1 19 2 23 8 3 5 0 7 -8 4 -8 -3 -18 0 -23 7 -4 8 -3 10 4 5 7 -4 12 -2
12 3 0 6 -5 11 -11 11 -5 0 -7 5 -4 10 4 6 10 8 14 5 5 -2 6 7 3 20 -2 14 -7
24 -11 24 -3 -1 -14 -3 -24 -6z"/>
<path d="M5313 8343 c-17 -26 -29 -52 -26 -57 4 -5 10 1 15 13 4 13 18 36 29
53 12 16 19 31 17 34 -3 2 -18 -17 -35 -43z"/>
<path d="M4445 8370 c-3 -6 1 -7 9 -4 18 7 21 14 7 14 -6 0 -13 -4 -16 -10z"/>
<path d="M4795 8350 c-3 -5 -1 -10 4 -10 6 0 11 5 11 10 0 6 -2 10 -4 10 -3 0
-8 -4 -11 -10z"/>
<path d="M4460 8334 c0 -8 5 -12 10 -9 6 3 10 10 10 16 0 5 -4 9 -10 9 -5 0
-10 -7 -10 -16z"/>
<path d="M4858 8299 c3 -21 7 -27 13 -18 4 7 3 21 -2 31 -14 25 -16 23 -11
-13z"/>
<path d="M4430 8280 c0 -5 5 -10 11 -10 5 0 7 5 4 10 -3 6 -8 10 -11 10 -2 0
-4 -4 -4 -10z"/>
<path d="M5091 8286 c2 -2 29 -6 59 -9 36 -4 48 -3 35 3 -19 8 -103 14 -94 6z"/>
<path d="M4788 8273 c7 -3 16 -2 19 1 4 3 -2 6 -13 5 -11 0 -14 -3 -6 -6z"/>
<path d="M4830 8270 c0 -5 5 -10 11 -10 5 0 7 5 4 10 -3 6 -8 10 -11 10 -2 0
-4 -4 -4 -10z"/>
<path d="M5338 8273 c18 -2 45 -2 60 0 15 2 0 4 -33 4 -33 0 -45 -2 -27 -4z"/>
<path d="M4098 8263 c7 -3 16 -2 19 1 4 3 -2 6 -13 5 -11 0 -14 -3 -6 -6z"/>
<path d="M4720 8260 c-24 -15 -7 -18 25 -4 23 10 25 13 10 13 -11 1 -27 -3
-35 -9z"/>
<path d="M3955 8240 c-3 -5 -1 -10 4 -10 6 0 11 5 11 10 0 6 -2 10 -4 10 -3 0
-8 -4 -11 -10z"/>
<path d="M3971 8208 c-13 -21 -13 -22 2 -10 18 15 41 7 31 -10 -4 -6 -2 -8 3
-5 13 8 46 -27 36 -38 -5 -4 -2 -5 5 -1 7 4 10 11 7 16 -3 4 0 11 5 13 6 3 5
4 -2 3 -7 -2 -25 10 -40 26 -14 15 -28 28 -30 28 -2 0 -9 -10 -17 -22z"/>
<path d="M4060 8222 c0 -4 4 -13 9 -20 7 -11 9 -11 14 1 3 9 -1 18 -9 21 -8 3
-14 2 -14 -2z"/>
<path d="M4558 8213 c7 -3 16 -2 19 1 4 3 -2 6 -13 5 -11 0 -14 -3 -6 -6z"/>
<path d="M3970 8156 c0 -2 7 -9 15 -16 9 -7 15 -8 15 -2 0 5 -7 12 -15 16 -8
3 -15 4 -15 2z"/>
<path d="M3655 8040 c-3 -6 1 -7 9 -4 18 7 21 14 7 14 -6 0 -13 -4 -16 -10z"/>
<path d="M6288 7993 c6 -2 18 -2 25 0 6 3 1 5 -13 5 -14 0 -19 -2 -12 -5z"/>
<path d="M3520 7976 c0 -2 7 -7 16 -10 8 -3 12 -2 9 4 -6 10 -25 14 -25 6z"/>
<path d="M6660 7959 c0 -5 5 -7 10 -4 6 3 10 8 10 11 0 2 -4 4 -10 4 -5 0 -10
-5 -10 -11z"/>
<path d="M3510 7950 c-13 -8 -12 -10 3 -10 9 0 17 5 17 10 0 12 -1 12 -20 0z"/>
<path d="M6438 7953 c7 -3 16 -2 19 1 4 3 -2 6 -13 5 -11 0 -14 -3 -6 -6z"/>
<path d="M6690 7916 c7 -7 13 -7 20 0 6 6 3 10 -10 10 -13 0 -16 -4 -10 -10z"/>
<path d="M6768 7923 c7 -3 16 -2 19 1 4 3 -2 6 -13 5 -11 0 -14 -3 -6 -6z"/>
<path d="M3488 7899 c-2 -6 -20 -13 -38 -14 -19 -1 -46 -6 -60 -10 -19 -5 -22
-4 -10 4 8 6 10 11 4 11 -17 0 -50 -28 -41 -36 4 -4 7 -2 7 4 0 7 5 12 11 12
5 0 7 -5 4 -10 -4 -6 -1 -9 6 -8 6 2 14 -3 17 -11 3 -9 0 -11 -8 -6 -9 6 -9 3
-1 -14 7 -11 19 -21 28 -21 13 0 14 3 5 12 -18 18 -15 37 6 33 9 -1 11 0 5 2
-7 3 -13 8 -13 13 0 11 45 21 64 14 15 -6 35 21 23 32 -3 3 -7 0 -9 -7z"/>
<path d="M3519 7888 c11 -30 36 -30 37 0 1 18 1 19 -3 2 -6 -26 -23 -26 -23 0
0 11 -4 20 -10 20 -6 0 -6 -9 -1 -22z"/>
<path d="M6765 7890 c3 -5 12 -7 20 -3 21 7 19 13 -6 13 -11 0 -18 -4 -14 -10z"/>
<path d="M6520 7880 c0 -5 5 -10 11 -10 5 0 7 5 4 10 -3 6 -8 10 -11 10 -2 0
-4 -4 -4 -10z"/>
<path d="M3452 7853 c2 -9 9 -18 16 -19 7 -1 8 0 3 2 -6 3 -7 12 -4 20 3 8 0
14 -7 14 -6 0 -10 -8 -8 -17z"/>
<path d="M6566 7842 c-2 -4 4 -8 14 -8 10 0 16 4 14 8 -3 4 -9 8 -14 8 -5 0
-11 -4 -14 -8z"/>
<path d="M6760 7839 c0 -5 11 -9 25 -9 16 0 25 -6 25 -16 0 -8 5 -12 10 -9 8
5 8 11 0 20 -13 15 -60 26 -60 14z"/>
<path d="M6630 7831 c0 -4 11 -13 25 -19 14 -6 25 -8 25 -3 0 4 -11 13 -25 19
-14 6 -25 8 -25 3z"/>
<path d="M3435 7810 c3 -5 8 -10 11 -10 2 0 4 5 4 10 0 6 -5 10 -11 10 -5 0
-7 -4 -4 -10z"/>
<path d="M6606 7803 c-6 -14 -5 -15 5 -6 7 7 10 15 7 18 -3 3 -9 -2 -12 -12z"/>
<path d="M6700 7810 c0 -5 5 -10 10 -10 6 0 10 5 10 10 0 6 -4 10 -10 10 -5 0
-10 -4 -10 -10z"/>
<path d="M6731 7804 c0 -11 3 -14 6 -6 3 7 2 16 -1 19 -3 4 -6 -2 -5 -13z"/>
<path d="M3364 7799 c-8 -13 14 -29 36 -28 11 1 10 3 -3 6 -9 2 -15 8 -12 13
3 5 1 11 -4 14 -5 4 -13 1 -17 -5z"/>
<path d="M6790 7776 c6 -8 19 -12 27 -9 14 6 14 8 -3 14 -30 12 -37 10 -24 -5z"/>
<path d="M6830 7760 c-9 -6 -10 -10 -3 -10 6 0 15 5 18 10 8 12 4 12 -15 0z"/>
<path d="M3336 7752 c-6 -11 6 -30 23 -34 8 -2 14 6 16 20 1 15 -4 22 -16 22
-10 0 -20 -4 -23 -8z"/>
<path d="M3448 7753 c6 -2 18 -2 25 0 6 3 1 5 -13 5 -14 0 -19 -2 -12 -5z"/>
<path d="M6855 7741 c-18 -8 -16 -10 18 -27 36 -17 38 -17 55 0 16 18 16 18
-11 12 -15 -4 -33 -3 -40 1 -8 5 -1 10 18 14 26 6 27 7 5 7 -14 0 -34 -3 -45
-7z"/>
<path d="M6600 7719 c0 -5 5 -7 10 -4 6 3 10 8 10 11 0 2 -4 4 -10 4 -5 0 -10
-5 -10 -11z"/>
<path d="M6755 7721 c11 -5 26 -6 33 -4 6 3 12 -2 12 -11 0 -9 6 -13 15 -10
25 10 -9 34 -47 33 -27 0 -29 -2 -13 -8z"/>
<path d="M6605 7680 c-3 -6 1 -7 9 -4 18 7 21 14 7 14 -6 0 -13 -4 -16 -10z"/>
<path d="M3320 7672 c0 -5 14 -18 31 -31 l31 -23 -17 25 c-16 25 -45 43 -45
29z"/>
<path d="M3295 7660 c3 -5 8 -10 11 -10 2 0 4 5 4 10 0 6 -5 10 -11 10 -5 0
-7 -4 -4 -10z"/>
<path d="M6910 7659 c0 -11 25 -22 39 -17 6 1 -1 8 -14 15 -14 6 -25 7 -25 2z"/>
<path d="M6960 7620 c0 -5 5 -10 10 -10 6 0 10 5 10 10 0 6 -4 10 -10 10 -5 0
-10 -4 -10 -10z"/>
<path d="M6743 7583 c-10 -3 -10 -10 -2 -24 8 -16 13 -18 25 -8 8 6 14 15 14
19 0 11 -22 18 -37 13z"/>
<path d="M3272 7549 c-7 -11 -8 -19 -2 -19 5 0 10 6 10 13 1 8 5 7 13 -4 10
-13 16 -13 37 -2 14 7 19 13 12 13 -7 0 -10 5 -7 10 3 6 -1 10 -10 10 -9 0
-13 -5 -9 -11 4 -8 1 -8 -13 -1 -15 8 -22 7 -31 -9z"/>
<path d="M3280 7460 c0 -11 5 -20 10 -20 6 0 10 9 10 20 0 11 -4 20 -10 20 -5
0 -10 -9 -10 -20z"/>
<path d="M3320 7450 c0 -5 5 -10 11 -10 5 0 7 5 4 10 -3 6 -8 10 -11 10 -2 0
-4 -4 -4 -10z"/>
<path d="M7030 6711 c0 -6 4 -13 10 -16 6 -3 7 1 4 9 -7 18 -14 21 -14 7z"/>
<path d="M3176 6685 c-9 -26 -7 -32 5 -12 6 10 9 21 6 23 -2 3 -7 -2 -11 -11z"/>
<path d="M3156 6635 c-9 -26 -7 -32 5 -12 6 10 9 21 6 23 -2 3 -7 -2 -11 -11z"/>
<path d="M7071 6645 c0 -5 8 -26 19 -45 11 -19 19 -30 19 -25 0 6 -8 26 -19
45 -11 19 -19 31 -19 25z"/>
<path d="M3061 7607 c-13 -16 -5 -27 21 -27 21 0 23 13 4 29 -10 8 -16 8 -25
-2z"/>
<path d="M3027 7573 c-12 -11 -8 -19 12 -20 14 -1 18 3 14 13 -6 15 -16 18
-26 7z"/>
<path d="M4988 7436 c-49 -18 -129 -78 -163 -122 -59 -77 -86 -196 -65 -286
41 -177 177 -288 355 -292 179 -3 310 115 347 312 21 112 -30 246 -123 325
-77 67 -253 98 -351 63z m205 -112 c73 -25 155 -133 131 -172 -15 -23 -44 -28
-44 -7 0 23 -47 112 -62 118 -10 3 -13 -6 -13 -32 0 -21 -8 -50 -18 -64 -15
-23 -25 -27 -63 -27 -39 0 -51 5 -80 34 -22 22 -32 40 -28 50 12 32 -14 15
-52 -34 -21 -27 -44 -49 -51 -50 -16 0 -27 55 -14 77 20 38 82 86 133 104 66
23 101 23 161 3z"/>
<path d="M5659 7335 c-56 -30 -78 -115 -49 -185 33 -80 151 -78 200 3 25 40
26 109 3 144 -31 47 -104 65 -154 38z m88 -27 c30 -39 15 -88 -27 -88 -22 0
-62 48 -53 64 15 27 27 36 48 36 12 0 27 -6 32 -12z"/>
<path d="M4476 7299 c-28 -22 -36 -73 -16 -109 10 -19 59 -40 92 -40 35 0 68
45 68 93 0 43 -2 46 -40 61 -53 21 -72 20 -104 -5z"/>
<path d="M5970 7084 c-87 -17 -190 -79 -234 -142 -81 -119 -95 -297 -31 -408
33 -57 107 -121 173 -152 70 -31 167 -34 262 -7 55 16 74 28 126 79 44 45 67
77 84 121 29 77 32 189 7 260 -33 96 -142 209 -225 233 -47 14 -129 22 -162
16z m111 -126 c74 -22 158 -118 159 -182 0 -14 -14 -5 -58 35 -33 30 -74 63
-93 73 l-33 20 22 -28 c29 -37 28 -58 -4 -95 -32 -39 -71 -41 -113 -5 -37 31
-39 61 -9 99 l21 27 -31 -16 c-17 -9 -49 -40 -71 -69 -22 -28 -50 -58 -62 -65
-22 -14 -22 -13 -15 30 22 136 153 217 287 176z"/>
<path d="M5561 6913 c-24 -19 -50 -60 -87 -140 -53 -113 -114 -213 -151 -245
-10 -10 -51 -31 -91 -47 l-71 -29 -6 46 c-8 68 -33 110 -84 145 -60 41 -131
48 -189 18 -51 -26 -68 -50 -82 -119 -20 -91 17 -165 110 -221 34 -20 143 -32
111 -12 -10 7 -5 11 17 16 20 4 48 25 76 56 24 27 46 49 49 49 3 0 7 -9 10
-20 5 -21 44 -40 79 -40 60 0 179 94 219 173 54 104 142 377 127 392 -2 2 -19
-8 -37 -22z m-547 -335 c29 -46 25 -51 -34 -50 -40 1 -50 -1 -35 -8 11 -5 37
-9 58 -9 29 -1 37 -5 37 -19 0 -28 -21 -42 -62 -42 -43 0 -78 30 -78 66 0 32
47 84 76 84 13 0 30 -10 38 -22z"/>
<path d="M4710 6710 c-25 -25 -26 -52 -2 -73 25 -23 37 -21 60 7 27 35 19 86
-14 86 -13 0 -33 -9 -44 -20z"/>
<path d="M3670 6632 c-40 -41 -48 -99 -20 -157 28 -58 49 -69 118 -62 73 8 98
31 95 91 -5 126 -119 201 -193 128z m95 -27 c41 -40 28 -85 -25 -85 -33 0 -50
17 -50 51 0 27 22 59 41 59 6 0 21 -11 34 -25z"/>
<path d="M6449 6497 c-67 -45 -78 -117 -29 -185 35 -49 57 -62 103 -62 59 0
117 64 117 127 -1 39 -33 107 -61 127 -33 23 -90 20 -130 -7z m90 -41 c16 -19
10 -66 -10 -79 -26 -16 -69 0 -69 26 0 51 52 86 79 53z"/>
<path d="M5633 6276 c-30 -25 -61 -82 -50 -92 10 -10 141 -23 172 -17 67 13
70 36 12 85 -60 49 -96 56 -134 24z"/>
<path d="M3743 6239 c-72 -28 -154 -105 -188 -176 -37 -77 -46 -196 -20 -274
58 -177 204 -270 375 -241 131 22 222 89 277 200 25 51 28 67 28 162 0 126
-18 174 -92 248 -63 63 -139 93 -248 98 -64 3 -90 0 -132 -17z m219 -115 c67
-34 128 -107 128 -153 0 -40 -23 -32 -86 30 -61 60 -64 62 -58 33 8 -41 -39
-94 -84 -94 -54 0 -95 82 -59 119 27 30 -39 -12 -78 -49 -49 -46 -75 -57 -75
-32 0 26 55 108 85 128 65 42 164 50 227 18z"/>
<path d="M4675 6240 c27 -12 43 -12 25 0 -8 5 -22 9 -30 9 -10 0 -8 -3 5 -9z"/>
<path d="M5575 5881 c-46 -12 -72 -28 -96 -62 -20 -28 -21 -35 -9 -72 14 -49
122 -162 164 -173 44 -11 97 5 133 41 29 29 33 39 33 88 0 64 -24 107 -85 149
-44 30 -94 40 -140 29z m90 -97 c27 -29 31 -54 15 -83 -15 -29 -38 -32 -80
-11 -43 22 -55 46 -41 83 17 44 70 50 106 11z"/>
<path d="M4300 5805 c-16 -19 -5 -50 24 -63 28 -12 46 0 46 33 0 41 -45 60
-70 30z"/>
<path d="M4138 5532 c-64 -19 -89 -36 -37 -25 38 7 99 31 99 38 0 3 -1 5 -2 4
-2 0 -29 -8 -60 -17z"/>
<path d="M4565 5430 c3 -5 12 -7 20 -3 21 7 19 13 -6 13 -11 0 -18 -4 -14 -10z"/>
<path d="M6217 5294 c-22 -22 47 -24 83 -3 10 6 0 8 -31 9 -25 0 -49 -3 -52
-6z"/>
<path d="M7120 7330 c0 -5 4 -10 9 -10 5 0 17 -3 25 -6 12 -5 15 -2 10 10 -7
17 -44 22 -44 6z"/>
<path d="M7017 7324 c-8 -8 1 -24 14 -24 5 0 9 7 9 15 0 15 -12 20 -23 9z"/>
<path d="M7188 7303 c7 -3 16 -2 19 1 4 3 -2 6 -13 5 -11 0 -14 -3 -6 -6z"/>
<path d="M9094 4575 c-9 -14 -44 -53 -78 -86 -65 -65 -48 -60 34 11 27 23 47
47 44 51 -3 5 1 9 8 9 8 0 14 9 15 20 2 26 -3 25 -23 -5z"/>
<path d="M8660 4456 c0 -18 29 -73 45 -86 13 -11 10 -1 -10 35 -33 58 -35 61
-35 51z"/>
<path d="M8847 4356 c-55 -33 -70 -53 -19 -25 24 13 48 29 54 36 13 17 11 16
-35 -11z"/>
<path d="M5521 4777 c-38 -19 -88 -128 -116 -251 -4 -20 -9 -26 -14 -17 -14
22 -39 -89 -45 -194 -7 -138 12 -489 29 -550 16 -57 77 -135 105 -135 52 0
127 112 150 225 9 41 12 179 12 451 0 353 -2 395 -18 429 -9 20 -28 41 -41 46
-31 11 -33 11 -62 -4z"/>
<path d="M5292 3975 c0 -16 2 -22 5 -12 2 9 2 23 0 30 -3 6 -5 -1 -5 -18z"/>
<path d="M5920 3681 c0 -5 7 -12 16 -15 14 -5 15 -4 4 9 -14 17 -20 19 -20 6z"/>
<path d="M6487 4971 c-19 -17 -45 -54 -57 -83 -30 -70 -60 -242 -60 -345 0
-55 -4 -82 -10 -78 -6 4 -8 10 -6 14 3 4 1 13 -5 21 -7 12 -9 12 -9 -3 0 -10
5 -27 10 -37 7 -13 7 -21 0 -25 -5 -3 -10 -12 -10 -18 0 -7 4 -6 10 3 8 13 10
13 10 -2 0 -9 -5 -18 -11 -20 -6 -2 -9 -16 -7 -30 3 -26 9 -22 111 76 119 115
155 176 178 299 15 78 1 187 -29 227 -28 38 -72 38 -115 1z"/>
<path d="M6391 4854 c-11 -38 -22 -87 -25 -109 l-5 -40 10 35 c29 101 48 175
44 178 -2 2 -13 -27 -24 -64z"/>
<path d="M2533 3593 c-46 -46 -75 -79 -65 -74 22 12 157 149 151 154 -2 2 -41
-34 -86 -80z"/>
<path d="M2305 3414 c-16 -12 -17 -16 -6 -23 15 -10 53 17 45 31 -7 11 -16 10
-39 -8z"/>
<path d="M2056 3204 c-8 -22 -8 -26 3 -19 5 3 12 -7 14 -22 3 -20 4 -16 6 15
1 42 -11 56 -23 26z"/>
<path d="M1891 3134 c0 -11 3 -14 6 -6 3 7 2 16 -1 19 -3 4 -6 -2 -5 -13z"/>
<path d="M2069 2640 c-4 -41 -12 -76 -18 -78 -6 -2 -11 -12 -11 -23 0 -10 -7
-19 -15 -19 -8 0 -15 -9 -15 -20 0 -13 7 -20 20 -20 17 0 20 -7 20 -40 0 -38
-2 -40 -30 -40 -16 0 -30 -4 -30 -10 0 -5 -7 -10 -15 -10 -12 0 -15 -14 -15
-70 0 -56 3 -70 15 -70 22 0 19 -44 -5 -65 -11 -10 -23 -27 -27 -39 -6 -20 -7
-20 -14 4 -7 24 -7 24 -8 3 -1 -13 -6 -23 -12 -23 -9 0 -10 26 -4 98 8 105 7
124 -4 282 -7 94 -8 81 -10 -115 0 -121 -4 -251 -8 -289 l-6 -69 74 7 c41 4
91 12 113 17 l38 10 -7 42 c-4 23 -10 170 -14 327 -4 193 -8 261 -12 210z"/>
<path d="M4599 4560 c-14 -8 -15 -16 -7 -52 13 -55 11 -305 -5 -528 -14 -196
-12 -525 4 -582 9 -36 12 -38 48 -38 36 0 39 2 45 35 4 20 2 97 -3 173 -6 75
-10 286 -9 467 2 354 -8 485 -39 517 -13 12 -23 14 -34 8z"/>
<path d="M4552 3785 c0 -16 2 -22 5 -12 2 9 2 23 0 30 -3 6 -5 -1 -5 -18z"/>
<path d="M3270 4233 c-14 -9 -31 -24 -38 -33 -22 -26 -62 -114 -62 -137 0 -12
-7 -29 -16 -37 -12 -13 -15 -38 -13 -138 1 -68 3 -156 3 -196 1 -39 3 -72 5
-72 2 0 35 28 74 63 132 116 185 234 173 381 -7 88 -33 159 -64 175 -27 15
-33 14 -62 -6z"/>
<path d="M3113 3625 c0 -22 2 -30 4 -17 2 12 2 30 0 40 -3 9 -5 -1 -4 -23z"/>
<path d="M3061 3458 c0 -13 4 -41 8 -63 9 -40 9 -40 10 17 0 31 -3 60 -9 63
-6 3 -10 -4 -9 -17z"/>
<path d="M2890 3425 c0 -8 2 -15 4 -15 2 0 6 7 10 15 3 8 1 15 -4 15 -6 0 -10
-7 -10 -15z"/>
<path d="M7034 8660 c-26 -10 -45 -60 -32 -83 9 -18 44 -22 66 -9 22 15 33 70
16 87 -17 17 -20 17 -50 5z"/>
<path d="M7372 8427 c-41 -42 -53 -99 -27 -127 34 -38 85 -20 124 44 26 41 27
78 3 99 -29 27 -65 21 -100 -16z"/>
<path d="M2747 8422 c-26 -28 -20 -58 19 -102 54 -60 99 -65 123 -14 10 23 8
32 -14 70 -38 65 -93 85 -128 46z"/>
<path d="M7716 8140 c-60 -56 -74 -91 -53 -136 25 -52 58 -47 124 21 59 60 65
87 32 129 -28 36 -52 33 -103 -14z"/>
<path d="M2424 8125 c-22 -34 -5 -75 50 -119 62 -50 84 -60 103 -45 47 39 33
93 -40 153 -53 43 -90 47 -113 11z"/>
<path d="M8042 7842 c-13 -2 -38 -19 -57 -38 -28 -27 -35 -43 -35 -72 0 -21 7
-47 15 -59 13 -19 20 -21 42 -12 15 6 47 26 70 45 35 28 43 42 43 67 -1 51
-30 77 -78 69z"/>
<path d="M2160 7818 c-11 -12 -20 -33 -20 -46 0 -33 60 -88 111 -104 39 -11
42 -10 60 13 28 36 23 63 -18 99 -31 27 -89 60 -107 60 -3 0 -14 -10 -26 -22z"/>
<path d="M8269 7480 c-42 -22 -89 -74 -89 -98 0 -9 9 -28 19 -41 19 -24 19
-24 63 -8 24 9 59 30 77 45 33 27 33 29 22 65 -7 20 -21 42 -31 47 -23 12 -18
13 -61 -10z"/>
<path d="M1920 7458 c-35 -37 -23 -68 40 -106 63 -37 85 -38 107 -1 24 39 10
74 -40 104 -54 31 -80 32 -107 3z"/>
<path d="M1730 7101 c-5 -11 -10 -26 -10 -34 0 -28 87 -87 129 -87 23 0 41 28
41 64 0 57 -134 104 -160 57z"/>
<path d="M8445 7095 c-115 -41 -91 -149 27 -124 82 18 105 66 57 118 -23 24
-30 25 -84 6z"/>
<path d="M1546 6688 c-9 -12 -16 -35 -16 -51 0 -24 7 -31 53 -52 67 -32 91
-31 116 1 39 50 19 85 -65 110 -62 19 -70 18 -88 -8z"/>
<path d="M8615 6533 c-24 -6 -53 -31 -67 -56 -10 -20 14 -57 85 -127 43 -43
48 -70 13 -70 -14 0 -28 5 -31 10 -10 17 -41 11 -61 -11 -19 -21 -19 -21 10
-44 55 -44 114 -40 169 13 40 38 37 83 -10 140 l-37 45 27 19 c29 21 35 49 14
66 -16 13 -84 23 -112 15z"/>
<path d="M8822 6493 c3 -36 5 -39 46 -47 l42 -9 0 -103 0 -104 34 0 c41 0 46
12 46 127 l0 81 31 11 c27 9 30 14 27 43 l-3 33 -113 3 -113 3 3 -38z"/>
<path d="M1452 6287 c-21 -24 -24 -63 -7 -80 16 -16 75 -37 106 -37 25 0 59
32 61 59 2 19 -6 30 -37 48 -44 25 -106 30 -123 10z"/>
<path d="M1446 5673 c-24 -24 10 -72 52 -73 21 0 22 -3 22 -108 0 -121 11
-153 44 -129 15 11 20 33 25 118 4 57 13 114 20 127 17 33 0 50 -57 57 -26 3
-59 8 -73 10 -15 2 -29 1 -33 -2z"/>
<path d="M1199 5655 c-36 -20 -42 -39 -23 -83 18 -45 47 -77 97 -108 20 -13
37 -28 37 -33 0 -19 -39 -21 -74 -5 -35 17 -36 17 -61 -6 -29 -28 -25 -36 29
-61 58 -26 108 -24 144 6 73 61 64 127 -26 178 l-55 31 45 13 c54 15 88 47 69
66 -18 18 -151 20 -182 2z"/>
<path d="M8112 3516 c-37 -42 -41 -79 -13 -115 28 -36 114 -42 170 -10 48 27
60 58 37 94 -21 31 -64 54 -119 61 -40 6 -45 4 -75 -30z"/>
<path d="M7390 2883 c-8 -3 -22 -12 -32 -20 -19 -17 -15 -35 32 -138 18 -38
53 -124 77 -190 55 -150 60 -156 107 -120 36 27 37 29 31 84 l-6 56 65 58 64
57 31 -25 30 -26 38 42 c21 23 38 47 38 53 0 19 -75 53 -252 115 -167 59 -192
65 -223 54z m203 -142 c34 -13 34 -21 -2 -55 -39 -37 -50 -30 -76 53 -7 22 -5
24 21 18 16 -3 41 -10 57 -16z"/>
<path d="M7096 2601 c-4 -6 -17 -11 -30 -11 -13 0 -31 -9 -40 -19 -17 -18 -17
-21 0 -53 15 -30 195 -299 228 -340 17 -23 19 -23 66 7 23 15 40 33 40 44 0
22 -103 177 -165 248 -25 29 -56 71 -69 94 -14 24 -27 36 -30 30z"/>
<path d="M3134 2513 c-32 -49 -87 -127 -121 -174 -35 -48 -63 -91 -62 -95 0
-10 77 -74 88 -74 3 0 20 21 36 45 17 25 33 45 36 45 3 0 29 -12 59 -26 65
-31 123 -33 178 -5 77 39 108 117 78 195 -9 24 -27 53 -39 64 -22 21 -175 112
-188 112 -3 0 -33 -39 -65 -87z m134 -90 c60 -45 62 -50 28 -89 l-23 -28 -47
18 c-26 10 -46 24 -46 32 0 14 41 94 48 94 2 0 20 -12 40 -27z"/>
<path d="M6686 2340 c-103 -45 -129 -65 -106 -80 39 -25 93 -31 162 -19 61 11
71 10 85 -4 22 -22 3 -64 -32 -72 -14 -3 -36 -7 -50 -10 -20 -4 -25 -11 -25
-37 0 -43 31 -104 79 -156 31 -34 46 -43 67 -40 44 5 53 32 26 78 -18 32 -20
41 -9 46 18 7 67 -13 93 -37 17 -16 25 -18 52 -8 19 6 32 18 32 28 0 9 -22 43
-48 76 -41 50 -50 69 -54 112 -8 84 -65 147 -143 157 -32 5 -57 -2 -129 -34z"/>
<path d="M3620 2330 c0 -6 -12 -29 -27 -53 -23 -36 -163 -295 -163 -301 0 -6
89 -66 98 -66 5 0 25 26 44 58 42 68 158 305 158 321 0 7 -15 18 -32 25 -58
24 -78 28 -78 16z"/>
<path d="M3896 2185 c-10 -25 -15 -49 -11 -53 3 -4 37 -19 73 -33 37 -15 67
-32 67 -40 0 -7 -52 -41 -115 -76 -99 -55 -180 -119 -180 -143 0 -8 137 -72
180 -85 14 -4 55 -23 92 -41 37 -19 70 -34 72 -34 5 0 46 129 46 142 0 3 -22
8 -48 11 -55 6 -124 36 -116 49 3 5 31 20 62 34 96 42 222 147 222 184 0 13
-11 19 -43 24 -33 5 -161 53 -272 102 -5 2 -18 -16 -29 -41z"/>
<path d="M6320 2169 c-41 -16 -89 -32 -107 -35 -34 -6 -42 -21 -22 -41 6 -6
39 -87 73 -181 34 -93 68 -179 77 -192 l15 -22 50 28 51 28 -23 53 c-13 30
-24 59 -24 65 0 21 71 -1 131 -42 l59 -40 46 23 46 24 -71 52 c-40 28 -75 59
-78 68 -3 8 1 28 11 43 18 32 21 92 5 121 -16 31 -99 79 -133 78 -17 0 -65
-13 -106 -30z m128 -120 c2 -19 -4 -33 -24 -48 -43 -34 -72 -26 -88 25 -5 17
0 24 31 37 54 22 77 18 81 -14z"/>
<path d="M5893 2047 l-103 -20 0 -43 c0 -33 3 -42 14 -38 10 4 16 -9 21 -55
10 -88 23 -96 149 -95 107 1 146 12 146 43 0 28 -19 39 -90 50 -60 10 -83 24
-77 46 2 6 31 16 65 24 67 16 71 21 50 78 -14 40 -24 40 -175 10z"/>
<path d="M4401 2010 c-6 -29 -10 -55 -8 -57 3 -2 32 -8 66 -14 33 -5 73 -14
87 -20 l27 -10 -23 -24 c-13 -14 -58 -46 -99 -72 -42 -25 -88 -58 -104 -71
-28 -26 -53 -91 -39 -103 15 -14 370 -96 377 -87 4 5 23 113 21 116 -2 1 -45
9 -97 18 -52 9 -95 17 -97 19 -2 1 45 45 104 96 103 90 154 151 154 184 0 11
-11 15 -37 15 -21 0 -87 12 -148 26 -188 43 -171 45 -184 -16z"/>
<path d="M5010 1935 c0 -16 -7 -68 -15 -115 -8 -47 -15 -131 -15 -186 0 -88 2
-103 18 -109 25 -10 305 -19 348 -10 l37 6 -6 50 c-3 27 -9 54 -12 59 -3 6
-55 10 -116 10 -109 0 -110 0 -107 23 3 20 9 22 93 27 102 6 115 11 115 46 0
57 -12 64 -115 64 l-95 0 0 30 0 30 103 0 c95 0 105 2 125 23 24 26 29 65 10
72 -7 3 -93 6 -191 7 l-177 3 0 -30z"/>
<path d="M6055 1735 c-28 -7 -79 -10 -116 -7 l-67 5 -3 -51 c-6 -82 4 -88 109
-75 129 17 166 31 170 67 5 44 -6 76 -26 75 -9 -1 -39 -7 -67 -14z"/>
<path d="M5535 1633 c-49 -5 -75 -27 -75 -65 0 -27 2 -28 51 -28 54 0 138 17
153 31 14 13 -44 69 -68 67 -12 -1 -39 -3 -61 -5z"/>
<path d="M5160 1289 c-14 -6 -44 -28 -67 -51 -36 -35 -49 -41 -95 -45 -29 -3
-60 -7 -68 -9 -13 -5 -13 -6 0 -13 8 -5 35 -11 60 -15 37 -5 49 -13 69 -41 36
-53 108 -115 133 -115 37 0 122 55 151 98 26 37 30 39 85 41 61 2 132 19 132
32 0 12 -86 22 -132 16 -35 -5 -44 -1 -76 28 -89 79 -134 97 -192 74z"/>
</g>
</svg>
